<svg width="341" height="384" viewBox="0 0 341 384" fill="none" xmlns="http://www.w3.org/2000/svg">
<path d="M288.483 73.3423H52.0413C50.5315 73.3423 49.3076 74.5374 49.3076 76.0115V95.6252C49.3076 97.0994 50.5315 98.2945 52.0413 98.2945H288.483C289.993 98.2945 291.217 97.0994 291.217 95.6252V76.0115C291.217 74.5374 289.993 73.3423 288.483 73.3423Z" stroke="#F1DFBC" stroke-width="8" stroke-linecap="round" stroke-linejoin="round"/>
<path d="M170.258 4.91211C173.419 4.91211 176.451 6.13825 178.686 8.32079C180.921 10.5033 182.177 13.4635 182.177 16.5501V73.1383H158.339V16.5501C158.339 13.4635 159.595 10.5033 161.83 8.32079C164.066 6.13825 167.097 4.91211 170.258 4.91211V4.91211Z" stroke="#F1DFBC" stroke-width="8" stroke-linecap="round" stroke-linejoin="round"/>
<path d="M247.709 126.941V151.862" stroke="#F1DFBC" stroke-width="8" stroke-linecap="round" stroke-linejoin="round"/>
<path d="M201.51 126.941V151.862" stroke="#F1DFBC" stroke-width="8" stroke-linecap="round" stroke-linejoin="round"/>
<path d="M149.592 126.941V151.862" stroke="#F1DFBC" stroke-width="8" stroke-linecap="round" stroke-linejoin="round"/>
<path d="M93.0479 126.941V151.862" stroke="#F1DFBC" stroke-width="8" stroke-linecap="round" stroke-linejoin="round"/>
<path d="M34.8301 340.835C34.8229 345.969 35.8531 351.054 37.8618 355.798C39.8705 360.542 42.8183 364.853 46.536 368.483C50.2538 372.113 54.6682 374.991 59.527 376.953C64.3859 378.914 69.5936 379.92 74.8513 379.913C80.109 379.92 85.3164 378.914 90.1752 376.953C95.0341 374.991 99.4489 372.113 103.167 368.483C106.884 364.853 109.832 360.542 111.841 355.798C113.849 351.054 114.879 345.969 114.872 340.835C114.872 339.447 114.763 338.166 114.654 336.885C114.429 334.276 113.916 331.698 113.123 329.197C112.986 329.051 112.908 328.861 112.904 328.663C110.26 320.844 105.161 314.036 98.3299 309.207C91.4993 304.377 83.2847 301.771 74.8513 301.757C65.3218 301.751 56.1042 305.074 48.8646 311.124C41.625 317.175 36.8409 325.555 35.3767 334.749V334.856C35.2673 335.497 35.158 336.137 35.0487 336.885C34.8639 338.193 34.7909 339.515 34.8301 340.835V340.835Z" stroke="#F1DFBC" stroke-width="8" stroke-linecap="round" stroke-linejoin="round"/>
<path d="M4.20251 269.118V253.284C4.02848 251.212 4.69401 249.157 6.05589 247.56C7.41777 245.963 9.36738 244.951 11.4852 244.742H33.289C34.2861 244.725 35.2667 244.49 36.1595 244.056C37.0522 243.622 37.8349 242.999 38.4503 242.233L56.3505 203.647C58.6956 198.925 62.3759 194.957 66.9565 192.211C71.5371 189.466 76.8267 188.058 82.2004 188.154H223.598C229.035 188.152 234.278 190.127 238.305 193.696L288.025 237.792L324.022 244.753C330.813 244.753 336.324 248.575 336.324 253.295L336.827 339.437L294.258 340.227" stroke="#F1DFBC" stroke-width="8" stroke-linecap="round" stroke-linejoin="round"/>
<path d="M29.1005 340.194H11.4847C9.36689 339.985 7.41728 338.973 6.0554 337.376C4.69353 335.779 4.02799 333.723 4.20202 331.652V306.219" stroke="#F1DFBC" stroke-width="8" stroke-linecap="round" stroke-linejoin="round"/>
<path d="M185.38 244.731V192.051" stroke="#F1DFBC" stroke-width="8" stroke-linecap="round" stroke-linejoin="round"/>
<path d="M251.054 244.729H21.0195" stroke="#F1DFBC" stroke-width="8" stroke-linecap="round" stroke-linejoin="round"/>
<path d="M213.089 341.282H114.873" stroke="#F1DFBC" stroke-width="8" stroke-linecap="round" stroke-linejoin="round"/>
<path d="M213.078 340.835C213.071 345.969 214.101 351.054 216.11 355.798C218.119 360.542 221.066 364.853 224.784 368.483C228.502 372.113 232.917 374.991 237.775 376.953C242.634 378.914 247.842 379.92 253.099 379.913C258.357 379.92 263.564 378.914 268.423 376.953C273.282 374.991 277.697 372.113 281.415 368.483C285.132 364.853 288.08 360.542 290.089 355.798C292.097 351.054 293.128 345.969 293.121 340.835C293.121 339.447 293.011 338.166 292.902 336.885C292.677 334.276 292.164 331.698 291.371 329.197C291.234 329.051 291.156 328.861 291.152 328.663C288.508 320.844 283.409 314.036 276.578 309.207C269.748 304.377 261.533 301.771 253.099 301.757C243.57 301.751 234.353 305.074 227.113 311.124C219.873 317.175 215.089 325.555 213.625 334.749V334.856C213.515 335.497 213.406 336.137 213.297 336.885C213.112 338.193 213.039 339.515 213.078 340.835V340.835Z" stroke="#F1DFBC" stroke-width="8" stroke-linecap="round" stroke-linejoin="round"/>
</svg>
