<svg width="383" height="207" viewBox="0 0 383 207" fill="none" xmlns="http://www.w3.org/2000/svg">
<path d="M57.9137 168.064H4.00049V20.5449C4.00049 16.1832 5.77552 12.0004 8.93511 8.91623C12.0947 5.83204 16.38 4.09912 20.8484 4.09912H39.0441" stroke="#F1DFBC" stroke-width="8" stroke-linecap="round" stroke-linejoin="round"/>
<path d="M118.877 168.065H264.418" stroke="#F1DFBC" stroke-width="8" stroke-linecap="round" stroke-linejoin="round"/>
<path d="M65.1919 4.09912H375.572C376.021 4.09901 376.465 4.18668 376.879 4.35659C377.293 4.52649 377.668 4.77528 377.982 5.08859C378.296 5.4019 378.542 5.7733 378.707 6.18095C378.872 6.58859 378.952 7.02439 378.942 7.46251V167.809H325.315" stroke="#F1DFBC" stroke-width="8" stroke-linecap="round" stroke-linejoin="round"/>
<path d="M378.267 29.1636H329.619C328.743 29.1892 327.912 29.5472 327.302 30.1613C326.691 30.7754 326.35 31.5974 326.351 32.4529V102.676C326.35 103.532 326.691 104.354 327.302 104.968C327.912 105.582 328.743 105.94 329.619 105.965H379" stroke="#F1DFBC" stroke-width="8" stroke-linecap="round" stroke-linejoin="round"/>
<path d="M57.5938 65.8865V94.6667H265.985V39.5322" stroke="#F1DFBC" stroke-width="8" stroke-linecap="round" stroke-linejoin="round"/>
<path d="M265.984 39.3022H78.7622" stroke="#F1DFBC" stroke-width="8" stroke-linecap="round" stroke-linejoin="round"/>
<path d="M193.102 94.7404V39.4331" stroke="#F1DFBC" stroke-width="8" stroke-linecap="round" stroke-linejoin="round"/>
<path d="M125.819 94.9871V39.4331" stroke="#F1DFBC" stroke-width="8" stroke-linecap="round" stroke-linejoin="round"/>
<path d="M119.256 172.587C119.252 180.567 116.002 188.22 110.221 193.863C104.44 199.506 96.6003 202.678 88.4246 202.682C80.249 202.678 72.4093 199.506 66.6283 193.863C60.8472 188.22 57.5974 180.567 57.593 172.587C57.5786 168.809 58.3226 165.066 59.783 161.568C62.0302 155.94 65.968 151.107 71.0793 147.702C76.1906 144.298 82.2368 142.481 88.4246 142.491C95.8532 142.492 103.031 145.115 108.635 149.875C114.239 154.635 117.891 161.211 118.919 168.393C119.16 169.778 119.273 171.182 119.256 172.587V172.587Z" stroke="#F1DFBC" stroke-width="8" stroke-linecap="round" stroke-linejoin="round"/>
<path d="M325.736 172.587C325.742 176.54 324.948 180.456 323.401 184.11C321.853 187.764 319.582 191.084 316.718 193.88C313.854 196.675 310.453 198.892 306.71 200.402C302.967 201.913 298.955 202.688 294.904 202.683C286.729 202.678 278.889 199.506 273.108 193.863C267.327 188.22 264.077 180.567 264.073 172.587C264.092 168.908 264.776 165.261 266.095 161.815C266.179 161.732 266.179 161.65 266.263 161.568C268.51 155.94 272.448 151.107 277.559 147.702C282.67 144.298 288.717 142.481 294.904 142.491C302.221 142.478 309.303 145.013 314.877 149.64C320.451 154.267 324.152 160.683 325.315 167.735C325.584 169.339 325.725 170.961 325.736 172.587V172.587Z" stroke="#F1DFBC" stroke-width="8" stroke-linecap="round" stroke-linejoin="round"/>
<path d="M57.5938 114.369H220.007" stroke="#F1DFBC" stroke-width="8" stroke-linecap="round" stroke-linejoin="round"/>
</svg>
