<svg width="167" height="166" viewBox="0 0 167 166" fill="none" xmlns="http://www.w3.org/2000/svg">
<path d="M55.7489 29.1904L55.5526 58.5667C55.5128 62.5866 56.9048 66.4902 59.4809 69.5828C59.9709 70.1692 60.5133 70.7101 61.1015 71.1986C62.2091 72.2176 63.468 73.0598 64.8335 73.6954V145.52C64.7938 147.135 65.3962 148.701 66.5092 149.875C67.6223 151.049 69.1556 151.736 70.7751 151.787H72.2482C73.8676 151.736 75.4012 151.049 76.5143 149.875C77.6274 148.701 78.2297 147.135 78.19 145.52V73.1079C81.9496 70.9185 84.6851 67.332 85.7965 63.1348" stroke="#F1DFBC" stroke-width="5" stroke-linecap="round" stroke-linejoin="round"/>
<path d="M65.7217 56.8775V28.0203" stroke="#F1DFBC" stroke-width="5" stroke-linecap="round" stroke-linejoin="round"/>
<path d="M75.9067 56.902V28.03" stroke="#F1DFBC" stroke-width="5" stroke-linecap="round" stroke-linejoin="round"/>
<path d="M128.99 130.994L127.516 131.425C126.01 131.831 124.403 131.629 123.045 130.862C121.687 130.094 120.688 128.824 120.264 127.327V127.219L99.8653 58.6449C75.7252 38.4389 89.6369 8.52409 90.9332 6.09566C91.1905 5.62271 91.5818 5.2358 92.0584 4.98341C92.5349 4.73101 93.0756 4.62427 93.6127 4.67651C94.1498 4.72875 94.6593 4.93768 95.078 5.27716C95.4966 5.61663 95.8056 6.07153 95.9663 6.58514L132.599 123.444C133.1 124.923 133.004 126.539 132.33 127.949C131.656 129.358 130.458 130.45 128.99 130.994Z" stroke="#F1DFBC" stroke-width="5" stroke-linecap="round" stroke-linejoin="round"/>
<path d="M55.6604 35.8635C47.444 40.7105 40.6366 47.6089 35.9092 55.8786C31.1818 64.1483 28.6975 73.5035 28.7017 83.0222C28.7041 94.1698 32.1143 105.052 38.4774 114.218C44.8406 123.384 53.8543 130.399 64.3176 134.328" stroke="#F1DFBC" stroke-width="5" stroke-linecap="round" stroke-linejoin="round"/>
<path d="M129.456 113.314C135.442 104.341 138.628 93.7996 138.609 83.0223C138.605 72.055 135.303 61.3408 129.129 52.2638C122.955 43.1869 114.193 36.1644 103.975 32.1035" stroke="#F1DFBC" stroke-width="5" stroke-linecap="round" stroke-linejoin="round"/>
<path d="M79.0249 137.628C80.557 137.755 82.099 137.819 83.6606 137.819C96.0549 137.838 108.089 133.662 117.794 125.976" stroke="#F1DFBC" stroke-width="5" stroke-linecap="round" stroke-linejoin="round"/>
<path d="M83.6651 163.352C128.215 163.352 164.33 127.343 164.33 82.9244C164.33 38.5056 128.215 2.49707 83.6651 2.49707C39.115 2.49707 3 38.5056 3 82.9244C3 127.343 39.115 163.352 83.6651 163.352Z" stroke="#F1DFBC" stroke-width="5" stroke-linecap="round" stroke-linejoin="round"/>
</svg>
