<svg width="329" height="321" viewBox="0 0 329 321" fill="none" xmlns="http://www.w3.org/2000/svg">
<path d="M109.104 55.8579L108.714 112.929C108.635 120.738 111.397 128.322 116.509 134.33C117.482 135.469 118.558 136.52 119.725 137.469C121.923 139.449 124.421 141.085 127.131 142.32V281.858C127.052 284.995 128.247 288.036 130.456 290.317C132.665 292.597 135.708 293.933 138.921 294.033H141.844C145.058 293.933 148.101 292.597 150.31 290.317C152.519 288.036 153.714 284.995 153.635 281.858V141.179C161.096 136.925 166.524 129.957 168.729 121.803" stroke="#F1DFBC" stroke-width="8" stroke-linecap="round" stroke-linejoin="round"/>
<path d="M128.895 109.647V53.5845" stroke="#F1DFBC" stroke-width="8" stroke-linecap="round" stroke-linejoin="round"/>
<path d="M149.104 109.694V53.603" stroke="#F1DFBC" stroke-width="8" stroke-linecap="round" stroke-linejoin="round"/>
<path d="M254.44 253.637L251.516 254.474C248.527 255.264 245.339 254.871 242.644 253.38C239.949 251.89 237.966 249.422 237.124 246.512V246.303L196.646 113.081C148.743 73.8264 176.349 15.7095 178.922 10.9916C179.432 10.0728 180.209 9.32117 181.154 8.83083C182.1 8.34049 183.173 8.13311 184.239 8.2346C185.304 8.3361 186.316 8.742 187.146 9.40151C187.977 10.061 188.59 10.9448 188.909 11.9426L261.602 238.97C262.597 241.844 262.406 244.983 261.069 247.721C259.731 250.46 257.354 252.582 254.44 253.637Z" stroke="#F1DFBC" stroke-width="8" stroke-linecap="round" stroke-linejoin="round"/>
<path d="M108.928 68.8223C92.624 78.2387 79.1156 91.6406 69.7346 107.707C60.3536 123.772 55.4239 141.947 55.4321 160.44C55.437 182.097 62.2042 203.238 74.831 221.045C87.4578 238.853 105.344 252.481 126.108 260.113" stroke="#F1DFBC" stroke-width="8" stroke-linecap="round" stroke-linejoin="round"/>
<path d="M255.367 219.289C267.246 201.856 273.567 181.377 273.53 160.439C273.523 139.133 266.97 118.318 254.719 100.683C242.467 83.0493 225.08 69.4063 204.803 61.5171" stroke="#F1DFBC" stroke-width="8" stroke-linecap="round" stroke-linejoin="round"/>
<path d="M155.292 266.525C158.332 266.772 161.392 266.896 164.491 266.896C189.086 266.932 212.966 258.82 232.224 243.887" stroke="#F1DFBC" stroke-width="8" stroke-linecap="round" stroke-linejoin="round"/>
<path d="M164.501 316.5C252.905 316.5 324.571 246.544 324.571 160.25C324.571 73.9555 252.905 4 164.501 4C76.0965 4 4.43066 73.9555 4.43066 160.25C4.43066 246.544 76.0965 316.5 164.501 316.5Z" stroke="#F1DFBC" stroke-width="8" stroke-linecap="round" stroke-linejoin="round"/>
</svg>
