<svg width="383" height="238" viewBox="0 0 383 238" fill="none" xmlns="http://www.w3.org/2000/svg">
<path d="M113.501 207.066C113.578 207.15 265.558 207.32 265.558 207.32" stroke="#F1DFBC" stroke-width="8" stroke-linecap="round" stroke-linejoin="round"/>
<path d="M278.103 96.0981L278.077 177.424" stroke="#F1DFBC" stroke-width="8" stroke-linecap="round" stroke-linejoin="round"/>
<path d="M330.463 207.32H378.771V33.7443C378.782 33.2931 378.703 32.8444 378.538 32.4243C378.373 32.0042 378.126 31.6211 377.811 31.298C377.495 30.975 377.118 30.7183 376.702 30.5431C376.286 30.3679 375.839 30.2777 375.388 30.2778H277.984" stroke="#F1DFBC" stroke-width="8" stroke-linecap="round" stroke-linejoin="round"/>
<path d="M48.8328 207.32H4.00086V21.8226C3.97853 19.6242 4.38991 17.4429 5.21104 15.4034C6.03217 13.3638 7.24678 11.5059 8.78634 9.93568C10.3259 8.36546 12.16 7.11371 14.1836 6.25195C16.2072 5.39018 18.3809 4.93518 20.5804 4.91309H261.455C265.8 4.95368 269.958 6.68179 273.051 9.73184C276.143 12.7819 277.927 16.9148 278.026 21.2563L278.119 69.4482" stroke="#F1DFBC" stroke-width="8" stroke-linecap="round" stroke-linejoin="round"/>
<path d="M379.001 56.0396H329.094C328.211 56.0616 327.372 56.4276 326.755 57.0595C326.139 57.6914 325.794 58.5392 325.794 59.4217V131.634C325.794 132.516 326.139 133.364 326.755 133.996C327.372 134.627 328.211 134.993 329.094 135.015H379.001" stroke="#F1DFBC" stroke-width="8" stroke-linecap="round" stroke-linejoin="round"/>
<path d="M57.7739 142.303H223.322" stroke="#F1DFBC" stroke-width="8" stroke-linecap="round" stroke-linejoin="round"/>
<path d="M110.752 202.155C110.748 210.361 107.485 218.229 101.679 224.031C95.8744 229.833 88.0025 233.095 79.793 233.099C71.5834 233.095 63.711 229.833 57.9059 224.031C52.1009 218.229 48.8377 210.361 48.8332 202.155C48.8188 198.271 49.5661 194.422 51.0326 190.826C53.2891 185.039 57.243 180.069 62.3755 176.569C67.5079 173.069 73.5795 171.201 79.793 171.21C87.2523 171.212 94.4595 173.909 100.087 178.803C105.714 183.697 109.382 190.459 110.414 197.843C110.656 199.267 110.769 200.71 110.752 202.155Z" stroke="#F1DFBC" stroke-width="8" stroke-linecap="round" stroke-linejoin="round"/>
<path d="M327.288 202.041C327.294 206.106 326.497 210.132 324.943 213.889C323.389 217.646 321.109 221.06 318.233 223.934C315.357 226.809 311.942 229.088 308.183 230.641C304.424 232.194 300.396 232.991 296.329 232.985C288.119 232.981 280.247 229.719 274.442 223.917C268.637 218.115 265.374 210.246 265.369 202.041C265.388 198.258 266.076 194.509 267.4 190.965C267.484 190.88 267.484 190.796 267.569 190.711C269.825 184.925 273.779 179.955 278.911 176.455C284.044 172.954 290.115 171.086 296.329 171.096C303.676 171.083 310.787 173.69 316.385 178.447C321.982 183.205 325.698 189.802 326.865 197.052C327.136 198.702 327.277 200.369 327.288 202.041V202.041Z" stroke="#F1DFBC" stroke-width="8" stroke-linecap="round" stroke-linejoin="round"/>
</svg>
