<svg width="383" height="282" viewBox="0 0 383 282" fill="none" xmlns="http://www.w3.org/2000/svg">
<path d="M224.015 129.034H143.404C134.62 129.584 125.968 126.731 119.324 121.094C112.68 115.457 108.579 107.489 107.911 98.9197V34.8056C108.566 26.2318 112.664 18.2578 119.311 12.6196C125.959 6.98147 134.618 4.13562 143.404 4.70164H312.416" stroke="#F1DFBC" stroke-width="8" stroke-linecap="round" stroke-linejoin="round"/>
<path d="M343.508 5.21952C352.278 4.63939 360.927 7.46473 367.575 13.0806C374.222 18.6965 378.328 26.6484 379.001 35.2061V99.0656C378.313 107.617 374.202 115.56 367.558 121.173C360.915 126.786 352.274 129.617 343.508 129.052H338.094" stroke="#F1DFBC" stroke-width="8" stroke-linecap="round" stroke-linejoin="round"/>
<path d="M97.0041 35.9014H107.913V100.515H97.0041C91.6859 100.515 86.5854 98.4519 82.8249 94.78C79.0643 91.1081 76.9517 86.1279 76.9517 80.935V55.4812C76.9517 50.2883 79.0643 45.3081 82.8249 41.6362C86.5854 37.9642 91.6859 35.9014 97.0041 35.9014V35.9014Z" stroke="#F1DFBC" stroke-width="8" stroke-linecap="round" stroke-linejoin="round"/>
<path d="M4.00049 69.0107H76.9512" stroke="#F1DFBC" stroke-width="8" stroke-linecap="round" stroke-linejoin="round"/>
<path d="M246.626 34.2861H311.445" stroke="#F1DFBC" stroke-width="8" stroke-linecap="round" stroke-linejoin="round"/>
<path d="M246.626 56.4409H311.445" stroke="#F1DFBC" stroke-width="8" stroke-linecap="round" stroke-linejoin="round"/>
<path d="M270.447 232.806L247.627 129.033H338.264L366.839 259.052L280.212 277.223L277.204 263.38" stroke="#F1DFBC" stroke-width="8" stroke-linecap="round" stroke-linejoin="round"/>
<path d="M254.305 159.068L247.537 129.022H223.415C222.52 130.952 222.284 133.11 222.743 135.18L228.006 158.519C228.933 162.532 231.439 166.027 234.982 168.251C238.526 170.475 242.823 171.248 246.946 170.404C249.129 169.918 251.072 168.706 252.442 166.975C253.812 165.245 254.523 163.104 254.455 160.918C254.456 160.298 254.406 159.68 254.305 159.068Z" stroke="#F1DFBC" stroke-width="8" stroke-linecap="round" stroke-linejoin="round"/>
</svg>
