<svg width="383" height="222" viewBox="0 0 383 222" fill="none" xmlns="http://www.w3.org/2000/svg">
<path d="M192.684 9.81152L192.661 186.654" stroke="#F1DFBC" stroke-width="8" stroke-linecap="round" stroke-linejoin="round"/>
<path d="M273.985 174.513L310.685 168.744C314.17 168.02 317.313 166.008 319.573 163.054C321.832 160.1 323.068 156.388 323.068 152.557V110.211" stroke="#F1DFBC" stroke-width="8" stroke-linecap="round" stroke-linejoin="round"/>
<path d="M336.437 31.5607L192.653 4.00049L226.177 64.8573L379 85.2143L336.437 31.5607Z" stroke="#F1DFBC" stroke-width="8" stroke-linecap="round" stroke-linejoin="round"/>
<path d="M192.661 4.1792L158.221 69.6184L4.00049 86.0193L46.5639 32.2834L192.661 4.1792Z" stroke="#F1DFBC" stroke-width="8" stroke-linecap="round" stroke-linejoin="round"/>
<path d="M76.7443 190.033L48.8394 182.961V83.0552" stroke="#F1DFBC" stroke-width="8" stroke-linecap="round" stroke-linejoin="round"/>
<path d="M344.737 81.4468V183.438L211.42 215.638C200.182 218.357 188.52 218.293 177.308 215.449L100.664 196.031" stroke="#F1DFBC" stroke-width="8" stroke-linecap="round" stroke-linejoin="round"/>
</svg>
