<svg width="249" height="321" viewBox="0 0 249 321" fill="none" xmlns="http://www.w3.org/2000/svg">
<path d="M4.54736 299.053C4.54736 303.813 6.48439 308.378 9.93244 311.744C13.3805 315.109 18.057 317 22.9333 317H95.8942C100.134 317 104.201 315.356 107.199 312.429C110.197 309.503 111.882 305.533 111.882 301.394V136.084C111.94 130.556 110.897 125.07 108.812 119.931" stroke="#F1DFBC" stroke-width="8" stroke-linecap="round" stroke-linejoin="round"/>
<path d="M91.3215 101.563C86.0553 98.0647 80.1109 95.6561 73.8547 94.4857V4.49951H42.5503V94.4857C31.8565 96.4965 22.214 102.08 15.279 110.276C8.34393 118.472 4.54952 128.77 4.54736 139.401V274.177" stroke="#F1DFBC" stroke-width="8" stroke-linecap="round" stroke-linejoin="round"/>
<path d="M42.583 28.9536H73.8074" stroke="#F1DFBC" stroke-width="8" stroke-linecap="round" stroke-linejoin="round"/>
<path d="M244.453 213.374H139.117V188.724H244.326V299.443C244.326 303.582 242.641 307.552 239.643 310.478C236.644 313.405 232.578 315.049 228.338 315.049H155.105C150.865 315.049 146.798 313.405 143.8 310.478C140.802 307.552 139.117 303.582 139.117 299.443V238.313" stroke="#F1DFBC" stroke-width="8" stroke-linecap="round" stroke-linejoin="round"/>
</svg>
