<svg width="383" height="231" viewBox="0 0 383 231" fill="none" xmlns="http://www.w3.org/2000/svg">
<path d="M134.881 158.615H65.0208C63.692 158.615 62.4657 157.427 61.7911 155.501L18.3312 30.4696C16.7776 25.9885 18.9136 20.4295 21.9697 20.9984L70.4994 27.9843" stroke="#F1DFBC" stroke-width="8" stroke-linecap="round" stroke-linejoin="round"/>
<path d="M70.54 27.9849L262.941 61.7277" stroke="#F1DFBC" stroke-width="8" stroke-linecap="round" stroke-linejoin="round"/>
<path d="M69.8047 81.1392L88.6316 130.191H149.151" stroke="#F1DFBC" stroke-width="8" stroke-linecap="round" stroke-linejoin="round"/>
<path d="M379.001 4.22217H319.719C317.93 4.22154 316.142 4.31157 314.363 4.49172C305.424 5.67351 296.968 9.15475 289.861 14.5791C282.753 20.0034 277.252 27.1755 273.919 35.3602L268.389 48.1049C263.9 58.4702 260.2 69.1444 257.319 80.0412L236.53 158.485" stroke="#F1DFBC" stroke-width="8" stroke-linecap="round" stroke-linejoin="round"/>
<path d="M166.475 158.536L209.505 220.782C217.038 231.68 236.55 227.109 236.55 214.444V158.555L166.475 158.536Z" stroke="#F1DFBC" stroke-width="8" stroke-linecap="round" stroke-linejoin="round"/>
<path d="M78.8188 188.814C78.8134 198.501 74.8704 207.788 67.856 214.637C60.8416 221.486 51.3296 225.337 41.4098 225.342C31.4899 225.337 21.9779 221.486 14.9635 214.637C7.94915 207.788 4.00616 198.501 4.00074 188.814C3.98309 184.23 4.88603 179.687 6.65831 175.441C9.38489 168.611 14.1624 162.744 20.3641 158.612C26.5658 154.48 33.9019 152.276 41.4098 152.287C50.423 152.289 59.1317 155.472 65.9311 161.249C72.7305 167.026 77.1624 175.008 78.4098 183.725C78.7022 185.406 78.8391 187.109 78.8188 188.814Z" stroke="#F1DFBC" stroke-width="8" stroke-linecap="round" stroke-linejoin="round"/>
</svg>
