<svg width="383" height="265" viewBox="0 0 383 265" fill="none" xmlns="http://www.w3.org/2000/svg">
<path d="M4.00049 216.566L89.5186 202.491" stroke="#F1DFBC" stroke-width="8" stroke-linecap="round" stroke-linejoin="round"/>
<path d="M176.509 224.5L97.421 237.519L84.8594 164.739L365.527 118.555" stroke="#F1DFBC" stroke-width="8" stroke-linecap="round" stroke-linejoin="round"/>
<path d="M330.516 211.358C331.472 216.857 331.309 222.487 330.034 227.925C328.759 233.362 326.398 238.501 323.087 243.047C319.775 247.592 315.578 251.455 310.735 254.414C305.892 257.374 300.498 259.371 294.863 260.292C289.231 261.226 283.466 261.066 277.897 259.822C272.328 258.577 267.065 256.271 262.41 253.038C257.754 249.804 253.798 245.705 250.767 240.976C247.737 236.248 245.691 230.982 244.748 225.48C244.499 223.994 244.368 222.602 244.249 221.209C244.071 219.368 244.071 217.515 244.249 215.674C244.203 214.679 244.275 213.682 244.463 212.704C244.578 212.519 244.624 212.302 244.594 212.088C245.982 203.242 250.188 195.048 256.616 188.668C263.043 182.288 271.365 178.046 280.401 176.545C290.049 174.941 299.971 176.582 308.54 181.201C317.109 185.82 323.818 193.142 327.568 201.97C328.078 202.913 328.477 203.91 328.757 204.94V205.057C328.995 205.718 329.232 206.391 329.482 207.169C329.951 208.533 330.297 209.934 330.516 211.358V211.358Z" stroke="#F1DFBC" stroke-width="8" stroke-linecap="round" stroke-linejoin="round"/>
<path d="M330.718 165.394L370.827 158.792" stroke="#F1DFBC" stroke-width="8" stroke-linecap="round" stroke-linejoin="round"/>
<path d="M76.9548 127.813L72.2009 99.7543C67.5661 72.8794 92.4041 46.3757 127.557 40.5737L345.702 4.68262L358.976 81.5823L379.001 191.299L327.78 199.735C324.03 190.907 317.321 183.584 308.752 178.965C300.183 174.347 290.261 172.705 280.612 174.31C271.577 175.811 263.255 180.052 256.828 186.432C250.4 192.813 246.194 201.007 244.806 209.853C244.836 210.067 244.79 210.284 244.675 210.468C244.486 211.447 244.415 212.444 244.461 213.439L148.96 229.151" stroke="#F1DFBC" stroke-width="8" stroke-linecap="round" stroke-linejoin="round"/>
</svg>
