<svg width="225" height="259" viewBox="0 0 225 259" fill="none" xmlns="http://www.w3.org/2000/svg">
<path d="M4.65625 200.034V4.89111H220.38V60.1365" stroke="#F1DFBC" stroke-width="8" stroke-linecap="round" stroke-linejoin="round"/>
<path d="M220.381 60.146V254.891H4.65771V230.651" stroke="#F1DFBC" stroke-width="8" stroke-linecap="round" stroke-linejoin="round"/>
<path d="M4.61963 45.2773L220.079 45.3513" stroke="#F1DFBC" stroke-width="8" stroke-linecap="round" stroke-linejoin="round"/>
<path d="M112.221 217.112C153.223 217.112 186.461 184.657 186.461 144.622C186.461 104.587 153.223 72.1323 112.221 72.1323C71.2201 72.1323 37.9819 104.587 37.9819 144.622C37.9819 184.657 71.2201 217.112 112.221 217.112Z" stroke="#F1DFBC" stroke-width="8" stroke-linecap="round" stroke-linejoin="round"/>
<path d="M112.231 193.741C140.008 193.741 162.526 171.754 162.526 144.632C162.526 117.509 140.008 95.5225 112.231 95.5225C84.4545 95.5225 61.937 117.509 61.937 144.632C61.937 171.754 84.4545 193.741 112.231 193.741Z" stroke="#F1DFBC" stroke-width="8" stroke-linecap="round" stroke-linejoin="round"/>
<path d="M68.4668 163.864C74.3369 159.262 81.2038 156.027 88.5459 154.405C95.888 152.783 103.512 152.816 110.839 154.502C134.851 160.749 158.862 153.458 160.272 139.938" stroke="#F1DFBC" stroke-width="8" stroke-linecap="round" stroke-linejoin="round"/>
<path d="M150.893 23.874H127.393" stroke="#F1DFBC" stroke-width="8" stroke-linecap="round" stroke-linejoin="round"/>
<path d="M196.682 23.874H173.182" stroke="#F1DFBC" stroke-width="8" stroke-linecap="round" stroke-linejoin="round"/>
<path d="M64.4263 5.00244V40.9517" stroke="#F1DFBC" stroke-width="8" stroke-linecap="round" stroke-linejoin="round"/>
</svg>
