<svg width="297" height="358" viewBox="0 0 297 358" fill="none" xmlns="http://www.w3.org/2000/svg">
<path d="M88.0226 181.477C88.0226 181.477 42.042 157.341 95.4554 107.416C172.22 35.6649 98.2238 4 98.2238 4C98.2238 4 181.378 38.201 168.79 100.934" stroke="#F1DFBC" stroke-width="8" stroke-linecap="round" stroke-linejoin="round"/>
<path d="M20.7544 274.405C20.7544 274.405 -17.6229 224.215 22.5901 193.215C55.3002 168.003 41.8791 158.584 31.7882 139.579" stroke="#F1DFBC" stroke-width="8" stroke-linecap="round" stroke-linejoin="round"/>
<path d="M265.734 271.703C265.734 271.703 294.051 267.003 292.727 217.4C291.644 176.796 249.705 184.384 266.767 138.335C266.767 138.335 242.513 149.634 244.79 169.912" stroke="#F1DFBC" stroke-width="8" stroke-linecap="round" stroke-linejoin="round"/>
<path d="M216.003 181.407C216.003 181.407 230.387 156.645 184.407 132.499" stroke="#F1DFBC" stroke-width="8" stroke-linecap="round" stroke-linejoin="round"/>
<path d="M284.281 311.407C284.281 334.71 272.244 353.705 257.399 353.705C242.553 353.705 230.416 334.71 230.416 311.407C230.4 305.756 231.142 300.127 232.623 294.664C232.623 294.566 232.723 294.468 232.723 294.37C242.954 293.293 251.681 283.208 255.593 269.206H255.693C256.246 269.046 256.823 268.979 257.399 269.01C272.244 269.001 284.281 288.006 284.281 311.407Z" stroke="#F1DFBC" stroke-width="8" stroke-linecap="round" stroke-linejoin="round"/>
<path d="M225 293.783C226.839 299.722 227.785 305.889 227.808 312.093C227.808 335.201 215.671 354 200.826 354C185.98 354 173.843 335.201 173.843 312.093C173.857 309.41 174.025 306.729 174.345 304.064" stroke="#F1DFBC" stroke-width="8" stroke-linecap="round" stroke-linejoin="round"/>
<path d="M179.762 286.047C181.423 281.767 184.275 278.025 187.996 275.24C191.718 272.455 196.161 270.738 200.826 270.283C202.842 270.274 204.844 270.605 206.744 271.262" stroke="#F1DFBC" stroke-width="8" stroke-linecap="round" stroke-linejoin="round"/>
<path d="M257.801 252.855C257.787 258.369 257.08 263.861 255.694 269.207H255.594C251.682 283.208 242.955 293.293 232.724 294.37C232.724 294.468 232.624 294.566 232.624 294.664C232.029 294.783 231.425 294.848 230.818 294.86C228.829 294.843 226.858 294.479 225.001 293.783H224.9C223.794 289.004 221.595 284.532 218.469 280.7C215.342 276.868 211.369 273.776 206.845 271.655C206.845 271.557 206.745 271.361 206.745 271.263C204.905 265.291 203.959 259.091 203.936 252.855C203.936 229.65 215.973 210.85 230.818 210.85C245.664 210.85 257.801 229.65 257.801 252.855Z" stroke="#F1DFBC" stroke-width="8" stroke-linecap="round" stroke-linejoin="round"/>
<path d="M71.6314 210.82H60.9487" stroke="#F1DFBC" stroke-width="8" stroke-linecap="round" stroke-linejoin="round"/>
<path d="M230.878 210.82H102.986" stroke="#F1DFBC" stroke-width="8" stroke-linecap="round" stroke-linejoin="round"/>
<path d="M201.527 353.901H31.5874" stroke="#F1DFBC" stroke-width="8" stroke-linecap="round" stroke-linejoin="round"/>
<path d="M257.008 353.901H225.241" stroke="#F1DFBC" stroke-width="8" stroke-linecap="round" stroke-linejoin="round"/>
<path d="M200.816 270.234H30.6558" stroke="#F1DFBC" stroke-width="8" stroke-linecap="round" stroke-linejoin="round"/>
<path d="M31.8195 353.842C16.954 353.842 4.86719 335.112 4.86719 312.004C4.86719 288.897 16.9038 270.234 31.8195 270.234" stroke="#F1DFBC" stroke-width="8" stroke-linecap="round" stroke-linejoin="round"/>
<path d="M36.3014 270.077C34.6533 264.398 33.8296 258.522 33.854 252.62C33.854 229.571 45.8909 210.84 60.7965 210.84" stroke="#F1DFBC" stroke-width="8" stroke-linecap="round" stroke-linejoin="round"/>
<path d="M66.5557 239.646H124.794" stroke="#F1DFBC" stroke-width="8" stroke-linecap="round" stroke-linejoin="round"/>
<path d="M38.5596 323.891H96.7977" stroke="#F1DFBC" stroke-width="8" stroke-linecap="round" stroke-linejoin="round"/>
</svg>
