<svg width="139" height="167" viewBox="0 0 139 167" fill="none" xmlns="http://www.w3.org/2000/svg">
<path d="M41.5449 84.6393C41.5449 84.6393 20.3938 73.537 44.9639 50.5711C80.2757 17.5658 46.2374 3 46.2374 3C46.2374 3 84.4884 18.7324 78.6977 47.5895" stroke="#F1DFBC" stroke-width="5" stroke-linecap="round" stroke-linejoin="round"/>
<path d="M10.6017 127.386C10.6017 127.386 -7.05187 104.299 11.4461 90.0391C26.4927 78.4413 20.319 74.1085 15.6772 65.3662" stroke="#F1DFBC" stroke-width="5" stroke-linecap="round" stroke-linejoin="round"/>
<path d="M123.293 126.143C123.293 126.143 136.318 123.981 135.709 101.164C135.211 82.4858 115.919 85.9765 123.768 64.7942C123.768 64.7942 112.611 69.9917 113.658 79.3195" stroke="#F1DFBC" stroke-width="5" stroke-linecap="round" stroke-linejoin="round"/>
<path d="M100.416 84.6071C100.416 84.6071 107.033 73.2165 85.8818 62.1096" stroke="#F1DFBC" stroke-width="5" stroke-linecap="round" stroke-linejoin="round"/>
<path d="M131.824 144.407C131.824 155.127 126.287 163.864 119.458 163.864C112.629 163.864 107.046 155.127 107.046 144.407C107.039 141.808 107.38 139.218 108.061 136.705C108.061 136.66 108.107 136.615 108.107 136.57C112.814 136.075 116.828 131.436 118.627 124.995H118.674C118.928 124.921 119.193 124.891 119.458 124.905C126.287 124.9 131.824 133.643 131.824 144.407Z" stroke="#F1DFBC" stroke-width="5" stroke-linecap="round" stroke-linejoin="round"/>
<path d="M104.554 136.3C105.401 139.032 105.836 141.869 105.846 144.723C105.846 155.352 100.263 164 93.4344 164C86.6055 164 81.0225 155.352 81.0225 144.723C81.0289 143.489 81.1061 142.256 81.2533 141.03" stroke="#F1DFBC" stroke-width="5" stroke-linecap="round" stroke-linejoin="round"/>
<path d="M83.7451 132.742C84.5095 130.773 85.8214 129.051 87.5331 127.77C89.2448 126.489 91.2886 125.7 93.4348 125.49C94.362 125.486 95.2831 125.638 96.1571 125.941" stroke="#F1DFBC" stroke-width="5" stroke-linecap="round" stroke-linejoin="round"/>
<path d="M119.643 117.473C119.637 120.01 119.311 122.536 118.674 124.995H118.628C116.828 131.436 112.814 136.075 108.108 136.57C108.108 136.615 108.062 136.66 108.062 136.705C107.788 136.76 107.51 136.79 107.231 136.796C106.316 136.788 105.409 136.62 104.555 136.3H104.509C104 134.102 102.988 132.045 101.55 130.282C100.112 128.519 98.2842 127.097 96.2034 126.121C96.2034 126.076 96.1572 125.986 96.1572 125.941C95.3111 123.194 94.876 120.342 94.8652 117.473C94.8652 106.799 100.402 98.1511 107.231 98.1511C114.06 98.1511 119.643 106.799 119.643 117.473Z" stroke="#F1DFBC" stroke-width="5" stroke-linecap="round" stroke-linejoin="round"/>
<path d="M34.0049 98.1372H29.0908" stroke="#F1DFBC" stroke-width="5" stroke-linecap="round" stroke-linejoin="round"/>
<path d="M107.258 98.1372H48.4282" stroke="#F1DFBC" stroke-width="5" stroke-linecap="round" stroke-linejoin="round"/>
<path d="M93.7573 163.954H15.585" stroke="#F1DFBC" stroke-width="5" stroke-linecap="round" stroke-linejoin="round"/>
<path d="M119.278 163.954H104.666" stroke="#F1DFBC" stroke-width="5" stroke-linecap="round" stroke-linejoin="round"/>
<path d="M93.4301 125.468H15.1562" stroke="#F1DFBC" stroke-width="5" stroke-linecap="round" stroke-linejoin="round"/>
<path d="M15.6915 163.927C8.85338 163.927 3.29346 155.311 3.29346 144.682C3.29346 134.052 8.83031 125.468 15.6915 125.468" stroke="#F1DFBC" stroke-width="5" stroke-linecap="round" stroke-linejoin="round"/>
<path d="M17.7535 125.396C16.9953 122.783 16.6164 120.08 16.6277 117.365C16.6277 106.763 22.1646 98.1465 29.0212 98.1465" stroke="#F1DFBC" stroke-width="5" stroke-linecap="round" stroke-linejoin="round"/>
<path d="M31.6704 111.397H58.46" stroke="#F1DFBC" stroke-width="5" stroke-linecap="round" stroke-linejoin="round"/>
<path d="M18.792 150.15H45.5815" stroke="#F1DFBC" stroke-width="5" stroke-linecap="round" stroke-linejoin="round"/>
</svg>
